<mxfile host="app.diagrams.net" modified="2022-07-07T05:48:23.687Z" agent="5.0 (Macintosh; Intel Mac OS X 10_15_7) AppleWebKit/537.36 (KHTML, like Gecko) Chrome/103.0.0.0 Safari/537.36" etag="1fQBv9fEZ-wFXw-UPrEQ" version="20.0.4" type="github">
  <diagram id="HStfzWMFuLfhwX3SQiMH" name="Page-1">
    <mxGraphModel dx="1281" dy="842" grid="1" gridSize="10" guides="1" tooltips="1" connect="1" arrows="1" fold="1" page="1" pageScale="1" pageWidth="827" pageHeight="1169" math="0" shadow="0">
      <root>
        <mxCell id="0" />
        <mxCell id="1" parent="0" />
        <mxCell id="-hSit2zzFbhU_EzP2kgC-9" style="edgeStyle=orthogonalEdgeStyle;rounded=0;orthogonalLoop=1;jettySize=auto;html=1;exitX=1;exitY=0.5;exitDx=0;exitDy=0;" edge="1" parent="1" source="-hSit2zzFbhU_EzP2kgC-1" target="-hSit2zzFbhU_EzP2kgC-2">
          <mxGeometry relative="1" as="geometry" />
        </mxCell>
        <mxCell id="-hSit2zzFbhU_EzP2kgC-1" value="state" style="whiteSpace=wrap;html=1;aspect=fixed;" vertex="1" parent="1">
          <mxGeometry x="100" y="330" width="80" height="80" as="geometry" />
        </mxCell>
        <mxCell id="-hSit2zzFbhU_EzP2kgC-2" value="store" style="ellipse;whiteSpace=wrap;html=1;aspect=fixed;" vertex="1" parent="1">
          <mxGeometry x="210" y="330" width="80" height="80" as="geometry" />
        </mxCell>
        <mxCell id="-hSit2zzFbhU_EzP2kgC-8" style="edgeStyle=orthogonalEdgeStyle;rounded=0;orthogonalLoop=1;jettySize=auto;html=1;exitX=0.5;exitY=0;exitDx=0;exitDy=0;" edge="1" parent="1" source="-hSit2zzFbhU_EzP2kgC-3" target="-hSit2zzFbhU_EzP2kgC-1">
          <mxGeometry relative="1" as="geometry" />
        </mxCell>
        <mxCell id="-hSit2zzFbhU_EzP2kgC-3" value="localPlayer&lt;br&gt;remotePlayers" style="rounded=1;whiteSpace=wrap;html=1;" vertex="1" parent="1">
          <mxGeometry x="30" y="460" width="120" height="60" as="geometry" />
        </mxCell>
        <mxCell id="-hSit2zzFbhU_EzP2kgC-4" value="scene" style="ellipse;whiteSpace=wrap;html=1;aspect=fixed;" vertex="1" parent="1">
          <mxGeometry x="374" y="170" width="80" height="80" as="geometry" />
        </mxCell>
        <mxCell id="-hSit2zzFbhU_EzP2kgC-19" style="edgeStyle=orthogonalEdgeStyle;rounded=0;orthogonalLoop=1;jettySize=auto;html=1;exitX=0.5;exitY=1;exitDx=0;exitDy=0;" edge="1" parent="1" source="-hSit2zzFbhU_EzP2kgC-5" target="-hSit2zzFbhU_EzP2kgC-17">
          <mxGeometry relative="1" as="geometry" />
        </mxCell>
        <mxCell id="-hSit2zzFbhU_EzP2kgC-5" value="controller" style="ellipse;whiteSpace=wrap;html=1;aspect=fixed;" vertex="1" parent="1">
          <mxGeometry x="470" y="390" width="80" height="80" as="geometry" />
        </mxCell>
        <mxCell id="-hSit2zzFbhU_EzP2kgC-10" style="edgeStyle=orthogonalEdgeStyle;rounded=0;orthogonalLoop=1;jettySize=auto;html=1;exitX=0.5;exitY=1;exitDx=0;exitDy=0;entryX=0.5;entryY=0;entryDx=0;entryDy=0;" edge="1" parent="1" source="-hSit2zzFbhU_EzP2kgC-6" target="-hSit2zzFbhU_EzP2kgC-4">
          <mxGeometry relative="1" as="geometry" />
        </mxCell>
        <mxCell id="-hSit2zzFbhU_EzP2kgC-6" value="render" style="whiteSpace=wrap;html=1;aspect=fixed;" vertex="1" parent="1">
          <mxGeometry x="374" y="40" width="80" height="80" as="geometry" />
        </mxCell>
        <mxCell id="-hSit2zzFbhU_EzP2kgC-7" value="" style="shape=flexArrow;endArrow=classic;startArrow=classic;html=1;rounded=0;" edge="1" parent="1">
          <mxGeometry width="100" height="100" relative="1" as="geometry">
            <mxPoint x="280" y="340" as="sourcePoint" />
            <mxPoint x="380" y="240" as="targetPoint" />
          </mxGeometry>
        </mxCell>
        <mxCell id="-hSit2zzFbhU_EzP2kgC-11" value="" style="shape=flexArrow;endArrow=classic;startArrow=classic;html=1;rounded=0;exitX=1;exitY=0.75;exitDx=0;exitDy=0;exitPerimeter=0;" edge="1" parent="1" source="-hSit2zzFbhU_EzP2kgC-2">
          <mxGeometry width="100" height="100" relative="1" as="geometry">
            <mxPoint x="310" y="480" as="sourcePoint" />
            <mxPoint x="460" y="420" as="targetPoint" />
          </mxGeometry>
        </mxCell>
        <mxCell id="-hSit2zzFbhU_EzP2kgC-12" value="" style="shape=flexArrow;endArrow=classic;startArrow=classic;html=1;rounded=0;" edge="1" parent="1">
          <mxGeometry width="100" height="100" relative="1" as="geometry">
            <mxPoint x="500" y="380" as="sourcePoint" />
            <mxPoint x="440" y="250" as="targetPoint" />
          </mxGeometry>
        </mxCell>
        <mxCell id="-hSit2zzFbhU_EzP2kgC-15" style="edgeStyle=orthogonalEdgeStyle;rounded=0;orthogonalLoop=1;jettySize=auto;html=1;exitX=0;exitY=0.5;exitDx=0;exitDy=0;entryX=1;entryY=0.5;entryDx=0;entryDy=0;" edge="1" parent="1" source="-hSit2zzFbhU_EzP2kgC-13" target="-hSit2zzFbhU_EzP2kgC-5">
          <mxGeometry relative="1" as="geometry" />
        </mxCell>
        <mxCell id="-hSit2zzFbhU_EzP2kgC-13" value="models" style="whiteSpace=wrap;html=1;aspect=fixed;" vertex="1" parent="1">
          <mxGeometry x="630" y="420" width="80" height="80" as="geometry" />
        </mxCell>
        <mxCell id="-hSit2zzFbhU_EzP2kgC-16" style="edgeStyle=orthogonalEdgeStyle;rounded=0;orthogonalLoop=1;jettySize=auto;html=1;exitX=0;exitY=0.5;exitDx=0;exitDy=0;entryX=1;entryY=0.5;entryDx=0;entryDy=0;" edge="1" parent="1" source="-hSit2zzFbhU_EzP2kgC-14" target="-hSit2zzFbhU_EzP2kgC-13">
          <mxGeometry relative="1" as="geometry" />
        </mxCell>
        <mxCell id="-hSit2zzFbhU_EzP2kgC-14" value="player&lt;br&gt;levels&lt;br&gt;socket&lt;br&gt;" style="rounded=1;whiteSpace=wrap;html=1;" vertex="1" parent="1">
          <mxGeometry x="750" y="440" width="120" height="60" as="geometry" />
        </mxCell>
        <mxCell id="-hSit2zzFbhU_EzP2kgC-20" style="edgeStyle=orthogonalEdgeStyle;rounded=0;orthogonalLoop=1;jettySize=auto;html=1;exitX=1;exitY=0.5;exitDx=0;exitDy=0;" edge="1" parent="1" source="-hSit2zzFbhU_EzP2kgC-17" target="-hSit2zzFbhU_EzP2kgC-18">
          <mxGeometry relative="1" as="geometry" />
        </mxCell>
        <mxCell id="-hSit2zzFbhU_EzP2kgC-17" value="server" style="ellipse;whiteSpace=wrap;html=1;aspect=fixed;" vertex="1" parent="1">
          <mxGeometry x="470" y="650" width="80" height="80" as="geometry" />
        </mxCell>
        <mxCell id="-hSit2zzFbhU_EzP2kgC-18" value="db" style="shape=cylinder3;whiteSpace=wrap;html=1;boundedLbl=1;backgroundOutline=1;size=15;" vertex="1" parent="1">
          <mxGeometry x="670" y="650" width="60" height="80" as="geometry" />
        </mxCell>
      </root>
    </mxGraphModel>
  </diagram>
</mxfile>
